<svg xmlns="http://www.w3.org/2000/svg" width="38" height="24" viewBox="0 0 38 24"><defs><mask id="v6thb" width="2" height="2" x="-1" y="-1"><path fill="#fff" d="M0 10h21v2H0z"/><path d="M0 11a1 1 0 0 1 1-1h19a1 1 0 1 1 0 2H1a1 1 0 0 1-1-1z"/></mask><filter id="v6tha" width="53" height="34" x="-14" y="-4" filterUnits="userSpaceOnUse"><feOffset dx="4" dy="4" in="SourceGraphic" result="FeOffset1025Out"/><feGaussianBlur in="FeOffset1025Out" result="FeGaussianBlur1026Out" stdDeviation="1.6 1.6"/></filter><mask id="v6thd" width="2" height="2" x="-1" y="-1"><path fill="#fff" d="M17 0h13v13H17z"/><path d="M15.43 6.21a1 1 0 0 1 1-1H30a1 1 0 1 1 0 2H16.43a1 1 0 0 1-1-1z"/></mask><filter id="v6thc" width="45" height="45" x="3" y="-14" filterUnits="userSpaceOnUse"><feOffset dx="4" dy="4" in="SourceGraphic" result="FeOffset1041Out"/><feGaussianBlur in="FeOffset1041Out" result="FeGaussianBlur1042Out" stdDeviation="1.6 1.6"/></filter><mask id="v6thf" width="2" height="2" x="-1" y="-1"><path fill="#fff" d="M17 9h13v13H17z"/><path d="M30.959 15.82a1 1 0 0 1-1 1H16.43a1 1 0 1 1 0-2h13.528a1 1 0 0 1 1 1z"/></mask><filter id="v6the" width="45" height="45" x="3" y="-5" filterUnits="userSpaceOnUse"><feOffset dx="4" dy="4" in="SourceGraphic" result="FeOffset1057Out"/><feGaussianBlur in="FeOffset1057Out" result="FeGaussianBlur1058Out" stdDeviation="1.6 1.6"/></filter></defs><g><g><g><g filter="url(#v6tha)"><path fill="none" d="M0 11a1 1 0 0 1 1-1h19a1 1 0 1 1 0 2H1a1 1 0 0 1-1-1z" mask="url(&quot;#v6thb&quot;)"/><path fill="#fff" fill-opacity=".25" d="M0 11a1 1 0 0 1 1-1h19a1 1 0 1 1 0 2H1a1 1 0 0 1-1-1z"/></g><path fill="#f2f2f2" d="M0 11a1 1 0 0 1 1-1h19a1 1 0 1 1 0 2H1a1 1 0 0 1-1-1z"/></g><g transform="rotate(45 23.5 6.5)"><g filter="url(#v6thc)"><path fill="none" d="M15.43 6.21a1 1 0 0 1 1-1H30a1 1 0 1 1 0 2H16.43a1 1 0 0 1-1-1z" mask="url(&quot;#v6thd&quot;)"/><path fill="#fff" fill-opacity=".25" d="M15.43 6.21a1 1 0 0 1 1-1H30a1 1 0 1 1 0 2H16.43a1 1 0 0 1-1-1z"/></g><path fill="#f2f2f2" d="M15.43 6.21a1 1 0 0 1 1-1H30a1 1 0 1 1 0 2H16.43a1 1 0 0 1-1-1z"/></g><g transform="rotate(135 23.5 15.5)"><g filter="url(#v6the)"><path fill="none" d="M30.959 15.82a1 1 0 0 1-1 1H16.43a1 1 0 1 1 0-2h13.528a1 1 0 0 1 1 1z" mask="url(&quot;#v6thf&quot;)"/><path fill="#fff" fill-opacity=".25" d="M30.959 15.82a1 1 0 0 1-1 1H16.43a1 1 0 1 1 0-2h13.528a1 1 0 0 1 1 1z"/></g><path fill="#f2f2f2" d="M30.959 15.82a1 1 0 0 1-1 1H16.43a1 1 0 1 1 0-2h13.528a1 1 0 0 1 1 1z"/></g></g></g></svg>